<svg width="237" height="88" viewBox="0 0 237 88" xmlns="http://www.w3.org/2000/svg">
    <title>404</title>
    <g fill-rule="nonzero" fill="none">
        <path d="M138.11 19.23c2.01 1.49 3.84 3.204 5.457 5.113 8.34 9.77 10.236 23.5 4.852 35.166-5.384 11.664-17.06 19.127-29.903 19.113h-.247c-1.12 0-2.18-.073-3.25-.19-1.51-.156-3.008-.42-4.482-.786C100.13 75.044 91.64 67.53 87.79 57.513c-3.85-10.018-2.58-21.284 3.402-30.194 8.87-13.2 25.9-18.173 40.475-11.816l3.48-7.466c-13.99-6.188-30.254-4.103-42.23 5.414-2.055 1.626-3.947 3.448-5.647 5.443-10.484 12.204-12.897 29.4-6.178 44.02 6.72 14.62 21.34 23.982 37.425 23.964h.42c18.004-.164 33.81-12.02 39.014-29.262 5.204-17.244-1.404-35.868-16.31-45.97l-3.53 7.583z"
              fill="#FFF"/>
        <path d="M154.918 0l-7.597 16.3c-1.75-1.717-3.648-3.274-5.675-4.653L147.075 0h7.843zM143.567 24.343c-1.616-1.91-3.447-3.624-5.457-5.112L112.763 73.6l2.24 4.832c1.07.118 2.158.18 3.25.19l25.314-54.28zM112.763 56.057l-4.085 8.777-9.11-19.556h8.17"
              fill="#0A157A"/>
        <path fill="#FFF"
              d="M208.162 45.816h-35.337l-6.96 8.3h42.297v33.38h8.954v-33.38h19.643l-6.965-8.3h-12.68V3.42h-8.723"/>
        <path fill="#0A157A" d="M208.392 3.42L180.34 36.86h11.692l16.287-19.423"/>
        <path fill="#FFF"
              d="M42.296 45.816H6.964L0 54.116h42.296v33.38h8.953v-33.38h19.643l-6.96-8.3H51.25V3.42h-8.72"/>
        <path fill="#0A157A" d="M42.53 3.42L14.473 36.86h11.693l16.288-19.423"/>
    </g>
</svg>