<svg width="176" height="103" viewBox="0 0 176 103">
    <title>temps écoulé 2</title>
    <g fill-rule="nonzero" fill="none">
        <path d="M88.3 102.713c-28.08 0-50.844-22.838-50.844-51.01C37.456 23.53 60.22.693 88.3.693c28.08 0 50.845 22.838 50.845 51.01-.03 28.16-22.777 50.98-50.845 51.01zm0-92.553c-22.873 0-41.416 18.603-41.416 41.55 0 22.948 18.543 41.55 41.416 41.55 22.874 0 41.416-18.602 41.416-41.55-.023-22.938-18.552-41.527-41.416-41.55z"
              fill="#FFF"/>
        <path d="M88.3 102.713c-28.08 0-50.844-22.838-50.844-51.01C37.456 23.53 60.22.693 88.3.693c28.08 0 50.845 22.838 50.845 51.01-.03 28.16-22.777 50.98-50.845 51.01zm0-92.553c-22.873 0-41.416 18.603-41.416 41.55 0 22.948 18.543 41.55 41.416 41.55 22.874 0 41.416-18.602 41.416-41.55-.023-22.938-18.552-41.527-41.416-41.55z"
              fill="#FFF"/>
        <path d="M161.257 51.71c.01 8.145-1.935 16.172-5.672 23.403l-7.752-5.606c5.4-11.41 5.32-24.667-.21-36.014 2.417-2.41 5.043-5.03 6.985-6.958 4.366 7.666 6.658 16.345 6.65 25.175zM175.77 51.71c.007 6.213-1.125 12.374-3.34 18.176l-7.814-6.306c1.94-6.537 2.25-13.452.908-20.138l7.682-7.707c1.703 5.152 2.57 10.547 2.564 15.975zM14.513 49.923c-.01-8.144 1.935-16.172 5.67-23.402l7.754 5.606c-5.4 11.41-5.322 24.668.21 36.015-2.417 2.41-5.044 5.032-6.985 6.96-4.367-7.668-6.66-16.347-6.65-25.177zM0 49.923C-.007 43.71 1.125 37.55 3.338 31.748l7.816 6.306c-1.934 6.526-2.246 13.428-.908 20.102l-7.683 7.708C.863 60.722-.002 55.34 0 49.924zM74.472 74.587l-7.06-6.27 16.237-18.4V21.118h9.427v32.384"
              fill="#0A157A"/>
    </g>
</svg>


<svg width="176px" height="103px" viewBox="0 0 176 103">
<g id="Mobile" stroke="none" stroke-width="1" fill="none" fill-rule="evenodd">
    <path d="M88.3003175,102.712721 C60.2197062,102.712721 37.455873,79.8749794 37.455873,51.7031973 C37.455873,23.5314152 60.2197062,0.693673469 88.3003175,0.693673469 C116.380929,0.693673469 139.144762,23.5314152 139.144762,51.7031973 C139.113969,79.8621731 116.368164,102.681828 88.3003175,102.712721 L88.3003175,102.712721 Z M88.3003175,10.1598639 C65.4269624,10.1598639 46.8844444,28.7625849 46.8844444,51.7102041 C46.8844444,74.6578233 65.4269624,93.2605442 88.3003175,93.2605442 C111.173673,93.2605442 129.71619,74.6578233 129.71619,51.7102041 C129.693092,28.7721906 111.164098,10.1830376 88.3003175,10.1598639 Z"
          id="Shape" fill="#FFFFFF"></path>
    <path d="M88.3003175,102.712721 C60.2197062,102.712721 37.455873,79.8749794 37.455873,51.7031973 C37.455873,23.5314152 60.2197062,0.693673469 88.3003175,0.693673469 C116.380929,0.693673469 139.144762,23.5314152 139.144762,51.7031973 C139.113969,79.8621731 116.368164,102.681828 88.3003175,102.712721 L88.3003175,102.712721 Z M88.3003175,10.1598639 C65.4269624,10.1598639 46.8844444,28.7625849 46.8844444,51.7102041 C46.8844444,74.6578233 65.4269624,93.2605442 88.3003175,93.2605442 C111.173673,93.2605442 129.71619,74.6578233 129.71619,51.7102041 C129.693092,28.7721906 111.164098,10.1830376 88.3003175,10.1598639 Z"
          id="Shape" fill="#FFFFFF"></path>
    <path d="M161.256508,51.7102041 C161.267205,59.8548607 159.321955,67.8822358 155.585397,75.1129252 L147.833016,69.507483 C153.231605,58.0964464 153.15448,44.8395552 147.623492,33.492517 C150.04,31.0821769 152.666032,28.4616327 154.607619,26.5347619 C158.974152,34.2013543 161.266281,42.8803026 161.256508,51.7102041 L161.256508,51.7102041 Z"
          id="Shape" fill="#0A157A"></path>
    <path d="M175.769524,51.7102041 C175.77655,57.9228254 174.644933,64.0837965 172.431111,69.8858503 L164.615873,63.5797279 C166.555595,57.0427314 166.867351,50.1281678 165.52381,43.4421769 L173.206349,35.7346939 C174.90947,40.8874284 175.774927,46.2815643 175.769524,51.7102041 Z"
          id="Shape" fill="#0A157A"></path>
    <path d="M14.5130159,49.9234694 C14.5023188,41.7788128 16.4475686,33.7514377 20.184127,26.5207483 L27.9365079,32.1261905 C22.537919,43.5372271 22.6150435,56.7941183 28.1460317,68.1411565 C25.7295238,70.5514966 23.1034921,73.1720408 21.1619048,75.0989116 C16.7953721,67.4323191 14.5032431,58.7533709 14.5130159,49.9234694 L14.5130159,49.9234694 Z"
          id="Shape" fill="#0A157A"></path>
    <path d="M3.22956722e-17,49.9234694 C-0.0070261663,43.710848 1.1245905,37.5498769 3.3384127,31.7478231 L11.1536508,38.0539456 C9.21970008,44.5799336 8.90797752,51.4817467 10.2457143,58.1564626 L2.5631746,65.8639456 C0.863748984,60.7223659 -0.00165983713,55.3403569 3.22956722e-17,49.9234694 L3.22956722e-17,49.9234694 Z"
          id="Shape" fill="#0A157A"></path>
    <polygon id="Shape" fill="#0A157A"
             points="74.471746 74.587415 67.4107937 68.3163265 83.6488889 49.9164626 83.6488889 21.1185034 93.0774603 21.1185034 93.0774603 53.5039456"></polygon>
</g>
</svg>