<svg width="80" height="23" viewBox="0 0 80 23" xmlns="http://www.w3.org/2000/svg"><title>logo_quebecor_groupemedia_couleur_noir_CMYK_FR</title><g fill="none" fill-rule="evenodd"><path d="M44.43 5.255v-.02c0-1.8 1.67-3.274 3.965-3.274 2.297 0 3.945 1.458 3.945 3.258v.018c0 1.8-1.67 3.276-3.966 3.276-2.297 0-3.944-1.458-3.944-3.257m6.198 0v-.02c0-1.084-.936-1.99-2.254-1.99-1.32 0-2.233.888-2.233 1.973v.018c0 1.086.936 1.992 2.255 1.992 1.32 0 2.233-.888 2.233-1.973M53.37 2.07h3.403c.947 0 1.68.226 2.17.642.414.352.637.85.637 1.447v.018c0 1.022-.648 1.664-1.595 1.964l1.818 2.262H57.89l-1.596-2.028h-1.286v2.028H53.37V2.07zm3.296 3.076c.8 0 1.255-.362 1.255-.895v-.02c0-.595-.49-.903-1.286-.903h-1.626v1.82h1.658zM6.23 7.97c-.627.343-1.382.54-2.21.54C1.723 8.51.075 7.055.075 5.256v-.02c0-1.8 1.67-3.274 3.966-3.274 2.297 0 3.945 1.458 3.945 3.258v.018c0 .66-.234 1.294-.66 1.818l.766.553-1.04.986-.82-.624zm-1.21-.916l-1.214-.876 1.042-.996 1.223.94c.14-.262.204-.55.204-.867v-.02c0-1.084-.936-1.99-2.254-1.99-1.32 0-2.233.888-2.233 1.973v.018c0 1.086.936 1.99 2.254 1.99.363 0 .692-.063.98-.172zM8.9 5.69V2.07h1.636v3.582c0 1.03.607 1.565 1.606 1.565 1 0 1.605-.516 1.605-1.52V2.07h1.637v3.573c0 1.918-1.264 2.86-3.263 2.86-2 0-3.22-.95-3.22-2.814M23.53 2.07h3.454c.85 0 1.52.2 1.946.56.34.29.51.643.51 1.077v.02c0 .714-.446 1.113-.978 1.364.86.282 1.392.707 1.392 1.56v.016c0 1.158-1.105 1.738-2.785 1.738h-3.54V2.07zm3.103 2.56c.723 0 1.18-.2 1.18-.67v-.017c0-.416-.383-.65-1.074-.65h-1.616V4.63h1.51zm.436 2.55c.722 0 1.158-.215 1.158-.687v-.017c0-.426-.372-.688-1.212-.688h-1.892V7.18h1.945zM30.853 2.07h5.614v1.24H32.48v1.283h3.51v1.24h-3.51v1.33h4.04v1.24h-5.667V2.07M37.222 5.255v-.02c0-1.8 1.595-3.274 3.88-3.274 1.404 0 2.243.4 2.934.98l-1.042 1.02c-.574-.443-1.158-.714-1.902-.714-1.255 0-2.16.887-2.16 1.972v.018c0 1.086.884 1.992 2.16 1.992.85 0 1.372-.29 1.956-.744l1.04.897c-.764.697-1.614 1.132-3.05 1.132-2.19 0-3.816-1.44-3.816-3.257M16.628 2.07h5.613v1.24h-3.985v1.283h3.51v1.24h-3.51v1.33h4.04v1.24h-5.667V2.07M19.55.167l-1.072 1.44h1.28l1.154-.932L19.55.167" fill="#1A1919"/><path d="M23.724 22.868s13.668-21.68 44.753-13.88c0 0-27.34-4.968-44.753 13.88" fill="#599BC7"/><path d="M42.564 18.417c-1.05 0-1.77-.75-1.77-1.76v-.01c0-.975.745-1.773 1.766-1.773.606 0 .972.167 1.324.47l-.467.573c-.26-.22-.49-.348-.882-.348-.538 0-.967.484-.967 1.066v.01c0 .626.423 1.086 1.02 1.086.27 0 .51-.068.7-.206v-.49h-.748v-.65h1.464v1.488c-.347.298-.823.543-1.44.543M46.883 18.358l-.722-1.096h-.58v1.096h-.743v-3.424h1.54c.795 0 1.272.425 1.272 1.13v.01c0 .552-.295.9-.723 1.06l.823 1.224h-.867zm.015-2.255c0-.323-.222-.49-.583-.49h-.736v.984h.75c.36 0 .568-.196.568-.485v-.01zM49.835 18.417c-1.04 0-1.786-.788-1.786-1.76v-.01c0-.975.754-1.773 1.794-1.773s1.787.788 1.787 1.762v.01c0 .974-.755 1.77-1.795 1.77m1.02-1.77c0-.587-.423-1.077-1.02-1.077s-1.01.48-1.01 1.066v.01c0 .587.423 1.076 1.02 1.076s1.01-.48 1.01-1.066v-.01M53.624 18.412c-.905 0-1.46-.514-1.46-1.522v-1.957h.743v1.938c0 .56.274.847.727.847.453 0 .727-.28.727-.822v-1.962h.742v1.933c0 1.037-.573 1.546-1.478 1.546M57.09 17.33h-.563v1.028h-.74v-3.424h1.376c.804 0 1.29.483 1.29 1.184v.01c0 .792-.606 1.203-1.362 1.203m.612-1.198c0-.337-.23-.518-.6-.518h-.575v1.046h.588c.37 0 .587-.225.587-.518v-.01M59.027 18.358v-3.424h2.542v.67h-1.807v.695h1.59v.67h-1.59v.718h1.83v.67h-2.566M66.282 18.358v-2.236l-.948 1.463h-.02l-.94-1.448v2.22h-.726v-3.423h.8l.886 1.448.886-1.448h.8v3.424h-.738M67.948 18.358v-3.424h2.543v.67h-1.805v.695h1.59v.67h-1.59v.718h1.83v.67h-2.567zm.867-3.694l.545-.866.63.28-.617.586h-.558zM72.61 18.358h-1.315v-3.424h1.314c1.06 0 1.79.738 1.79 1.702v.01c0 .964-.73 1.712-1.79 1.712m1.015-1.713c0-.606-.41-1.032-1.016-1.032h-.574v2.065h.573c.606 0 1.015-.416 1.015-1.023v-.01M75.02 18.358h.743v-3.425h-.742M77.69 14.91l-1.446 3.448H77l.31-.768h1.424l.308.768h.775l-1.445-3.45h-.683zm.33.904l.45 1.11h-.897l.448-1.11z" fill="#1A1919"/></g></svg>