<svg width="95" height="140" viewBox="0 0 95 140" xmlns="http://www.w3.org/2000/svg">
    <title>vote envoyé 2</title>
    <g fill-rule="nonzero" fill="none">
        <path d="M68.742.53l-53.43 26.084-1.076.51.524 1.083L31.364 62.17l.538 1.054L87.456 36.12s-.238-.46-.524-1.047L69.812 0l-1.07.53zM29.408 26.196l30.337-14.81 3.227-1.606-1.327 3.33L53.2 34.334l-.468 1.173-1.208-.356-21.892-6.378-3.444-1.005 3.22-1.572zm26.67 15.982l11.47-28.68 1.16-2.914 1.396 2.794 9.235 18.91.607 1.242-1.244.607L35.75 55.093l-1.243.608-.635-1.215-9.228-18.86-1.397-2.794 3.01.88 29.758 8.65.063-.183z"
              fill="#0A157A"/>
        <path fill="#FFF"
              d="M67.82 53.836h17.33v76.503H9.43V53.835h7.733l-4.394-9.43H0v95.363h94.58l-.14-93.926-10.526.056"/>
    </g>
</svg>